# xmcd CD database file
# Copyright (C) 1997 Ti Kan
# 
# Track frame offsets:
#     182
#     13170
#     24930
#     39562
#     48885
#     61962
#     75732
#     83907
#     95467
#     109247
#     120750
#     134945
#     147372
#     160057
#     172622
#     183952
#     195955
#     207585
#     226532
#     238250
#     251400
#     261037
# 
# Disc length: 3675 seconds
# 
# Revision: 1
# Processed by: cddbd v1.4b41PL1 Copyright (c) Steve Scherf et al.
# Submitted via: DiscPlay 4.0.4
# 
DISCID=190e5916
DTITLE=Various Artist - Soul Of New Orleans, The
DYEAR=1900
DGENRE=
TTITLE0=Workin' In A Coal Mine/Lee Dorsey
TTITLE1=Barefootin'/Robert Parker
TTITLE2=Look A Py Py/The Meters
TTITLE3=Iko Iko/The Dixie Cups
TTITLE4=Ride Your Pony/Lee Dorsey
TTITLE5=Cissy Strut/The Meters
TTITLE6=Lawdy Miss Clawdy/Lloyd Price
TTITLE7=People Say/The Dixie Cups
TTITLE8=Down Home Girl/Alvin Robinson
TTITLE9=Holy Cow/Lee Dorsey
TTITLE10=Tell It Like It Is/Aaron Neville
TTITLE11=Chapel Of Love/The Dixie Cups
TTITLE12=Release Me/Johnny Adams
TTITLE13=Chicken Strut/The Meters
TTITLE14=Get Out Of My Life Woman/Lee Dorsey
TTITLE15=Let The Good Times Roll/Alvin Robinson
TTITLE16=Red Sails In The Sunset/Fats Domino
TTITLE17=Hercules/Aaron Neville
TTITLE18=Sinner Girl/Benny Spellman
TTITLE19=Don't Pity Me/Curly Moore
TTITLE20=Gossip Gossip/Diamond Joe
TTITLE21=I Think You're Jiving Me/HueyPianoSmith
EXTD=
EXTT0=
EXTT1=
EXTT2=
EXTT3=
EXTT4=
EXTT5=
EXTT6=
EXTT7=
EXTT8=
EXTT9=
EXTT10=
EXTT11=
EXTT12=
EXTT13=
EXTT14=
EXTT15=
EXTT16=
EXTT17=
EXTT18=
EXTT19=
EXTT20=
EXTT21=
PLAYORDER=
